<?xml version="1.0" encoding="UTF-8" standalone="no"?>
<!-- Created with Inkscape (http://www.inkscape.org/) -->

<svg
   version="1.1"
   id="svg272"
   xml:space="preserve"
   width="1885.4243"
   height="321.31122"
   viewBox="0 0 1885.4244 321.31123"
   sodipodi:docname="ashkanarabim-horizon.ai.svg"
   inkscape:version="1.1.2 (0a00cf5339, 2022-02-04)"
   inkscape:export-filename="/home/ashkan/Documents/fake-login/assets/ashkanarabim-horizon.png"
   inkscape:export-xdpi="96"
   inkscape:export-ydpi="96"
   xmlns:inkscape="http://www.inkscape.org/namespaces/inkscape"
   xmlns:sodipodi="http://sodipodi.sourceforge.net/DTD/sodipodi-0.dtd"
   xmlns="http://www.w3.org/2000/svg"
   xmlns:svg="http://www.w3.org/2000/svg"><defs
     id="defs276" /><sodipodi:namedview
     id="namedview274"
     pagecolor="#ffffff"
     bordercolor="#666666"
     borderopacity="1.0"
     inkscape:pageshadow="2"
     inkscape:pageopacity="0.0"
     inkscape:pagecheckerboard="0"
     showgrid="false"
     width="2000px"
     fit-margin-top="0"
     fit-margin-left="0"
     fit-margin-right="0"
     fit-margin-bottom="0"
     inkscape:zoom="0.76508706"
     inkscape:cx="984.85524"
     inkscape:cy="221.54342"
     inkscape:window-width="1866"
     inkscape:window-height="1136"
     inkscape:window-x="0"
     inkscape:window-y="0"
     inkscape:window-maximized="1"
     inkscape:current-layer="text290" /><g
     id="g278"
     inkscape:groupmode="layer"
     inkscape:label="ashkanarabim"
     transform="matrix(1.3333333,0,0,-1.3333333,-15.794971,511.0116)"><g
       aria-label="ashkan"
       transform="scale(1,-1)"
       id="text286"
       style="font-size:147.229px;font-family:'Bauhaus 93';-inkscape-font-specification:Bauhaus93"><path
         d="m 535.60932,-312.01655 v 27.8211 q -3.3069,0.57512 -6.03869,0.57512 -16.17506,0 -26.95843,-10.6396 -10.78338,-10.63959 -10.78338,-26.67088 0,-15.59995 10.85527,-26.45521 10.92715,-10.85526 26.5271,-10.85526 17.39717,0 27.38977,10.20826 10.06448,10.13637 10.06448,27.74921 V -285.13 h -26.88655 v -33.2128 q 0,-5.67924 -2.80367,-9.05803 -2.73179,-3.37879 -7.40459,-3.37879 -4.24146,0 -7.33269,3.09123 -3.09124,3.09124 -3.09124,7.3327 0,4.45712 2.80368,7.33269 2.80368,2.87557 7.11703,2.87557 3.52257,0 6.54191,-1.86912 z"
         id="path14353" /><path
         d="m 627.28428,-355.79705 v 28.32433 q -5.67924,0 -7.83591,2.15667 -2.08479,2.08479 -2.6599,8.33915 -1.86912,20.77596 -16.10318,29.33077 -7.54836,4.45713 -21.42297,4.45713 h -3.73823 v -28.46811 h 1.22211 q 6.47003,0 9.20182,-2.65989 2.80367,-2.73179 3.23501,-9.48937 0.57511,-10.99905 2.01289,-15.45617 1.50968,-4.45713 6.03869,-8.84237 7.90781,-7.69214 21.9262,-7.69214 z"
         id="path14355" /><path
         d="m 662.97875,-383.25871 v 29.97778 q 6.82947,-4.96035 13.65894,-4.96035 10.35204,0 16.39073,7.47647 6.11058,7.47647 6.11058,20.20085 V -285.13 h -26.88655 v -37.88559 q 0,-4.60091 -1.00644,-6.18247 -0.93456,-1.58156 -3.73824,-1.58156 -4.52902,0 -4.52902,6.68569 V -285.13 h -26.88654 v -98.12871 z"
         id="path14357" /><path
         d="M 741.74639,-383.25871 V -285.13 h -26.88655 v -98.12871 z m 41.19249,26.45521 -13.15572,26.09577 19.55386,45.57773 H 759.5749 l -16.82206,-46.79985 12.22116,-24.87365 z"
         id="path14359" /><path
         d="m 834.04301,-312.01655 v 27.8211 q -3.3069,0.57512 -6.03869,0.57512 -16.17506,0 -26.95844,-10.6396 -10.78337,-10.63959 -10.78337,-26.67088 0,-15.59995 10.85526,-26.45521 10.92715,-10.85526 26.5271,-10.85526 17.39718,0 27.38977,10.20826 10.06449,10.13637 10.06449,27.74921 V -285.13 h -26.88655 v -33.2128 q 0,-5.67924 -2.80368,-9.05803 -2.73179,-3.37879 -7.40458,-3.37879 -4.24146,0 -7.3327,3.09123 -3.09123,3.09124 -3.09123,7.3327 0,4.45712 2.80368,7.33269 2.80367,2.87557 7.11702,2.87557 3.52257,0 6.54192,-1.86912 z"
         id="path14361" /><path
         d="m 944.69668,-285.13 h -26.88655 v -40.4736 q 0,-6.18247 -5.10413,-6.18247 -5.03224,0 -5.03224,6.18247 v 40.4736 h -26.88655 v -39.97038 q 0,-14.01839 9.2737,-23.57964 9.27371,-9.63315 22.71698,-9.63315 15.38428,0 24.65798,11.14282 7.26081,8.69859 7.26081,24.22665 z"
         id="path14363" /></g><g
       aria-label="arabim"
       transform="scale(-1,1)"
       id="text290"
       style="font-size:147.229px;font-family:'Bauhaus 93';-inkscape-font-specification:Bauhaus93"><path
         d="m -906.44179,219.05291 v 27.8211 q -3.30691,0.57512 -6.03869,0.57512 -16.17507,0 -26.95844,-10.6396 -10.78337,-10.6396 -10.78337,-26.67088 0,-15.59995 10.85526,-26.45521 10.92715,-10.85526 26.5271,-10.85526 17.39718,0 27.38977,10.20826 10.06448,10.13637 10.06448,27.74921 v 35.1538 h -26.88654 v -33.21279 q 0,-5.67924 -2.80368,-9.05803 -2.73179,-3.37879 -7.40458,-3.37879 -4.24146,0 -7.3327,3.09123 -3.09123,3.09123 -3.09123,7.33269 0,4.45713 2.80367,7.3327 2.80368,2.87556 7.11703,2.87556 3.52257,0 6.54192,-1.86911 z"
         id="path14384" /><path
         d="m -820.37422,173.54707 v 28.75566 q -2.80368,-1.58156 -5.10413,-1.58156 -7.33269,0 -7.33269,11.21471 v 34.00357 h -26.88655 v -39.17959 q 0,-15.52806 8.48292,-24.72987 8.48292,-9.2737 22.64509,-9.2737 3.16312,0 8.19536,0.79078 z"
         id="path14386" /><path
         d="m -772.61037,219.05291 v 27.8211 q -3.30691,0.57512 -6.03869,0.57512 -16.17506,0 -26.95844,-10.6396 -10.78337,-10.6396 -10.78337,-26.67088 0,-15.59995 10.85526,-26.45521 10.92715,-10.85526 26.5271,-10.85526 17.39718,0 27.38977,10.20826 10.06448,10.13637 10.06448,27.74921 v 35.1538 h -26.88654 v -33.21279 q 0,-5.67924 -2.80368,-9.05803 -2.73179,-3.37879 -7.40458,-3.37879 -4.24146,0 -7.3327,3.09123 -3.09123,3.09123 -3.09123,7.33269 0,4.45713 2.80368,7.3327 2.80367,2.87556 7.11702,2.87556 3.52257,0 6.54192,-1.86911 z"
         id="path14388" /><path
         d="m -700.56118,147.81075 v 58.73344 q 0,14.30595 10.28015,14.30595 4.38524,0 7.40458,-2.94746 3.09123,-3.01934 3.09123,-7.26081 0,-4.38523 -2.87556,-7.33269 -2.87557,-3.01934 -7.04514,-3.01934 -2.94746,0 -6.75758,2.58801 v -29.61834 q 4.74468,-0.43133 7.18891,-0.43133 15.16862,0 25.95199,10.92715 10.85527,10.92715 10.85527,26.31143 0,15.74373 -10.99905,26.5271 -10.99904,10.78338 -27.03032,10.78338 -8.05159,0 -15.74373,-3.52257 -7.62025,-3.52257 -12.5806,-9.48937 -8.6267,-10.35204 -8.6267,-26.81466 v -59.73989 z"
         id="path14390" /><path
         d="m -613.8075,174.26596 v 71.67349 h -26.88655 v -71.67349 z m -13.37139,-31.99068 q 5.46358,0 9.41748,3.88202 4.0258,3.81012 4.0258,9.05803 0,5.60736 -3.81013,9.20181 -3.73824,3.59446 -9.63315,3.59446 -5.89491,0 -9.70503,-3.59446 -3.73824,-3.59445 -3.73824,-9.20181 0,-5.24791 3.9539,-9.05803 4.0258,-3.88202 9.48937,-3.88202 z"
         id="path14392" /><path
         d="m -499.6532,245.93945 h -26.88655 v -38.67637 q 0,-4.45712 -0.93456,-6.18246 -0.93456,-1.72534 -3.37879,-1.72534 -4.52902,0 -4.52902,7.97969 v 38.60448 h -26.88654 v -38.67637 q 0,-4.45712 -1.00645,-6.18246 -0.93456,-1.72534 -3.37879,-1.72534 -4.45713,0 -4.45713,7.97969 v 38.60448 h -26.88655 v -44.13994 q 0,-12.07738 8.12348,-20.48841 8.12347,-8.48292 19.69763,-8.48292 11.9336,0 21.42297,10.06448 10.56771,-10.06448 21.13541,-10.06448 13.44328,0 21.56675,9.77692 6.39814,7.62025 6.39814,22.21375 z"
         id="path14394" /></g><g
       id="g292"
       transform="rotate(-45,751.4221,-971.19148)"><path
         d="m 0,0 18.384,-18.385 346.531,346.53 v 36.77 z"
         style="fill:#000000;fill-opacity:1;fill-rule:nonzero;stroke:none"
         id="path294" /></g><g
       id="g296"
       transform="rotate(-45,1075.696,-1534.2107)"><path
         d="m 0,0 -341.08,-341.08 18.385,-18.384 L 36.769,0 Z"
         style="fill:#000000;fill-opacity:1;fill-rule:nonzero;stroke:none"
         id="path298" /></g><g
       id="g300"
       transform="rotate(-45,305.47159,102.45808)"><path
         d="m 0,0 h 36.77 l 340.968,340.969 -18.385,18.385 z"
         style="fill:#000000;fill-opacity:1;fill-rule:nonzero;stroke:none"
         id="path302" /></g><g
       id="g304"
       transform="rotate(-45,393.11631,109.31101)"><path
         d="m 0,0 v -36.77 l 369.49,369.489 -18.386,18.385 z"
         style="fill:#000000;fill-opacity:1;fill-rule:nonzero;stroke:none"
         id="path306" /></g></g></svg>
